<?xml version="1.0" encoding="utf-8"?>
<!-- Generated by IcoMoon.io -->
<!DOCTYPE svg PUBLIC "-//W3C//DTD SVG 1.1//EN" "http://www.w3.org/Graphics/SVG/1.1/DTD/svg11.dtd">
<svg version="1.1" xmlns="http://www.w3.org/2000/svg" xmlns:xlink="http://www.w3.org/1999/xlink" width="16" height="16" viewBox="0 0 16 16">
<path fill="#dddddd" d="M8 6h3c0.6 0 1-0.1 1-0.1 1.3-0.4 2-1.9 2-3.4 0-0.3-0.2-0.5-0.5-0.5s-0.5 0.2-0.5 0.5c0 1-0.5 2.5-1.8 2.5h-0.2c0 0 0.2-2.1-2-2.8v-1.7c0-0.3-0.2-0.5-0.5-0.5s-0.5 0.2-0.5 0.5v1.5c-0.2 0-0.3 0-0.5 0s-0.3 0-0.5 0v-1.5c0-0.3-0.2-0.5-0.5-0.5s-0.5 0.2-0.5 0.5v1.7c-2.2 0.7-2 2.8-2 2.8h-0.2c-1.3 0-1.8-1.5-1.8-2.5 0-0.3-0.2-0.5-0.5-0.5s-0.5 0.2-0.5 0.5c0 1.4 0.7 2.9 2 3.4 0 0 0.3 0.1 1 0.1h4zM8 3h1v1h-1v-1zM6 3h1v1h-1v-1z"></path>
<path fill="#dddddd" d="M3 7v1c-2.8 0.1-3 1.4-3 3.5 0 0.2 0.2 0.5 0.5 0.5s0.5-0.3 0.5-0.5c0-1.8 0-2.4 2-2.5 0 0 0 1.6 0.6 3.1-0.4 0.1-0.7 0.2-0.9 0.5-0.7 0.6-0.7 1.7-0.7 2.7v0.1c0 0.3 0.2 0.6 0.5 0.6s0.5-0.3 0.5-0.5v-0.1c0-0.8 0-1.7 0.4-2.1 0.1-0.2 0.4-0.3 0.7-0.3 0.5 1 1.5 1.8 2.9 2v-8h-4z"></path>
<path fill="#dddddd" d="M12 8v-1h-4v8c1.4-0.2 2.4-1 2.9-1.9 0.3 0 0.5 0.1 0.7 0.2 0.4 0.4 0.4 1.2 0.4 2.1v0.1c0 0.3 0.2 0.5 0.5 0.5s0.5-0.2 0.5-0.5v-0.1c0-1 0-2.1-0.7-2.8-0.2-0.2-0.6-0.4-0.9-0.5 0.6-1.5 0.6-3 0.6-3.1 2 0 2 0.7 2 2.5 0 0.3 0.2 0.5 0.5 0.5s0.5-0.2 0.5-0.5c0-2.1-0.2-3.4-3-3.5z"></path>
</svg>
