<svg class="svg-icon" style="width: 1em; height: 1em;vertical-align: middle;fill: #dddddd;overflow: hidden;" viewBox="0 0 1024 1024" version="1.1" xmlns="http://www.w3.org/2000/svg"><path d="M512 597.333333C558.933333 597.333333 597.333333 635.733333 597.333333 682.666667 597.333333 729.6 558.933333 768 512 768 465.066667 768 426.666667 729.6 426.666667 682.666667 426.666667 635.733333 465.066667 597.333333 512 597.333333M1000.96 378.026667 933.12 672 640 604.16 802.133333 502.613333C741.973333 405.333333 634.453333 341.333333 512 341.333333 343.466667 341.333333 203.52 463.36 175.786667 624.213333L91.733333 609.28C126.293333 408.746667 301.226667 256 512 256 664.746667 256 799.146667 336.64 874.666667 457.386667L1000.96 378.026667Z"  /></svg>